<svg width="55" height="16" viewBox="0 0 55 16" fill="none" xmlns="http://www.w3.org/2000/svg">
<line x1="42.234" y1="14.3574" x2="53.1424" y2="1.35722" stroke="#0C1B33" stroke-width="2"/>
<line y1="-1" x2="16.9706" y2="-1" transform="matrix(-0.642788 -0.766044 -0.766044 0.642788 52.9084 15.0002)" stroke="#0C1B33" stroke-width="2"/>
<path d="M30.8421 12.6364C32.5862 12.6364 34 11.2254 34 9.48485V5.54545C34 3.80492 34 1 30.8421 1H25.3158C22.1579 1 22.5526 3.18182 22.5526 3.9697M22.1579 15H27.6842C29.4283 15 30.8421 13.589 30.8421 11.8485V7.12121C30.8421 5.38068 29.4283 3.9697 27.6842 3.9697H22.1579C20.4138 3.9697 19 5.38068 19 7.12121V11.8485C19 13.589 20.4138 15 22.1579 15Z" stroke="#0C1B33" stroke-width="2"/>
<line y1="14" x2="11" y2="14" stroke="#0C1B33" stroke-width="2"/>
</svg>