<svg width="45" height="45" viewBox="0 0 45 45" fill="none" xmlns="http://www.w3.org/2000/svg">
<path d="M16.3511 30.7C18.0935 31.9915 20.2152 32.75 22.5009 32.75C24.7866 32.75 26.9083 31.9915 28.6508 30.7M2.74751 24.4639C1.96853 19.058 1.57904 16.3541 2.68806 14.0437C3.79504 11.7334 6.15453 10.3271 10.8715 7.5186L13.7107 5.82735C17.991 3.2751 20.1352 2 22.5008 2C24.8665 2 27.0087 3.2751 31.291 5.82735L34.1302 7.5186C38.8451 10.3271 41.2046 11.7334 42.3136 14.0437C43.4206 16.3541 43.0311 19.058 42.2521 24.4639L41.6822 28.4347C40.6839 35.3801 40.1837 38.8508 37.775 40.9254C35.3663 43 31.8343 43 24.7681 43H20.2336C13.1674 43 9.63535 43 7.22666 40.9254C4.81796 38.8508 4.31778 35.3801 3.31945 28.4347L2.74751 24.4639Z" stroke="white" stroke-width="4" stroke-linecap="round"/>
</svg>