<svg width="41" height="41" viewBox="0 0 41 41" fill="none" xmlns="http://www.w3.org/2000/svg">
<path fill-rule="evenodd" clip-rule="evenodd" d="M6.67275 15.457L8.2451 13.8846C12.6936 9.43615 14.9158 7.2119 17.6812 7.2119C18.0933 7.2119 18.4951 7.2611 18.8907 7.36155C21.1581 7.9253 23.3331 10.1003 27.1154 13.8805V13.8846C30.3543 17.1236 32.4166 19.1839 33.2961 21.1314C33.6241 21.8591 33.7881 22.5684 33.7881 23.3188C33.7881 26.0821 31.5639 28.3064 27.1154 32.7549L25.543 34.3273C21.0945 38.7757 18.8723 41 16.1068 41C13.3435 41 11.1192 38.7757 6.67275 34.3273C2.22425 29.8788 0 27.6565 0 24.8911C0 22.1277 2.22425 19.9055 6.67275 15.457ZM5.58625 23.8046C5.87453 23.5167 6.26531 23.355 6.67275 23.355C7.08019 23.355 7.47097 23.5167 7.75925 23.8046L17.1954 33.2407C17.467 33.5322 17.6148 33.9177 17.6078 34.316C17.6008 34.7143 17.4394 35.0944 17.1577 35.3761C16.876 35.6578 16.496 35.8191 16.0977 35.8262C15.6994 35.8332 15.3139 35.6853 15.0224 35.4137L5.58625 25.9797C5.29833 25.6914 5.1366 25.3006 5.1366 24.8931C5.1366 24.4857 5.29833 24.0929 5.58625 23.8046ZM36.5515 4.4485C39.5178 7.4128 41 8.897 41 10.7379C41 12.5829 39.5178 14.063 36.5515 17.0294L35.2497 18.3331C35.0334 18.0037 34.805 17.6823 34.565 17.3696C33.3269 15.746 31.5351 13.9543 29.4359 11.8551L29.1448 11.564C27.0456 9.46485 25.254 7.67315 23.6304 6.43495C23.3177 6.19564 22.9963 5.96794 22.6668 5.7523L23.9706 4.4485C26.937 1.48215 28.4191 0 30.2621 0C32.103 0 33.5872 1.48215 36.5515 4.4485ZM36.1231 9.225C36.411 9.51328 36.5727 9.90406 36.5727 10.3115C36.5727 10.7189 36.411 11.1097 36.1231 11.398L34.6737 12.8494C34.5329 13.0005 34.3632 13.1216 34.1746 13.2057C33.986 13.2897 33.7824 13.3349 33.576 13.3385C33.3695 13.3422 33.1645 13.3042 32.973 13.2269C32.7816 13.1495 32.6077 13.0344 32.4617 12.8884C32.3157 12.7424 32.2006 12.5685 32.1232 12.3771C32.0459 12.1856 32.0079 11.9806 32.0116 11.7741C32.0152 11.5677 32.0604 11.3641 32.1445 11.1755C32.2285 10.9869 32.3496 10.8172 32.5007 10.6764L33.9501 9.225C34.2383 8.93708 34.6291 8.77535 35.0365 8.77535C35.444 8.77535 35.8348 8.93708 36.1231 9.225ZM31.775 4.87695C32.0629 5.16523 32.2246 5.55601 32.2246 5.96345C32.2246 6.37089 32.0629 6.76167 31.775 7.04995L30.3256 8.4993C30.1849 8.65036 30.0152 8.77152 29.8266 8.85555C29.638 8.93958 29.4344 8.98477 29.2279 8.98841C29.0215 8.99205 28.8164 8.95408 28.625 8.87675C28.4335 8.79942 28.2596 8.68433 28.1136 8.53833C27.9676 8.39233 27.8525 8.21842 27.7752 8.02697C27.6979 7.83553 27.6599 7.63047 27.6635 7.42403C27.6672 7.21759 27.7124 7.014 27.7964 6.8254C27.8804 6.6368 28.0016 6.46706 28.1526 6.3263L29.5999 4.87695C29.8882 4.58903 30.279 4.4273 30.6864 4.4273C31.0939 4.4273 31.4867 4.58903 31.775 4.87695Z" fill="white"/>
</svg>