<svg width="96" height="60" viewBox="0 0 96 60" fill="none" xmlns="http://www.w3.org/2000/svg">
<path d="M2 1C1.44772 1 1 1.44772 1 2V58C1 58.5523 1.44772 59 2 59H85C85.5523 59 86 58.5523 86 58V10.5C86 9.94772 85.5523 9.5 85 9.5H37.8882C37.1641 4.68837 33.0131 1 28 1H2Z" fill="#FEDC87" stroke="#0C1B33" stroke-width="2" stroke-linejoin="round"/>
<path d="M11 15C10.5285 15 10.121 15.3294 10.0222 15.7905L1.0222 57.7905C0.958921 58.0858 1.03248 58.3938 1.22233 58.6287C1.41219 58.8635 1.69801 59 2 59H85C85.4715 59 85.879 58.6706 85.9778 58.2095L94.9778 16.2095C95.0411 15.9142 94.9675 15.6062 94.7777 15.3713C94.5878 15.1365 94.302 15 94 15H11Z" fill="#FEDC87" stroke="#0C1B33" stroke-width="2" stroke-linejoin="round"/>
</svg>